Patient4_TMGait_0pt6_01_right_03_EMG.mot
version=1
nRows=13
nColumns=33
inDegrees=no
endheader
time	1LAddLong	2LGlutMax	3LGlutMed	4LIliopsoas	5LSemiMemb	6LBicFemLong	7LRecFem	8LVastMed	9LVastLat	10LGasMed	11LTibAnt	12lTibPost	13LPeroneusLong	14LSol	15LExtDigLong	16LFlexDigLong	17RAddLong	18RGlutMax	19RGlutMed	20RIliopsoas	21RSemiMemb	22RBicFemLong	23RRecFem	24RVastMed	25RVastLat	26RGasMed	27RTibAnt	28RTibPost	29RPeroneusLong	30RSol	31RExtDigLong	32RFlexDigLong
3.84	0.009003	0.050812	0.11581	0.005188	-0.006714	0.041199	-0.012207	-0.017853	-0.05188	-0.029907	-0.2684	0.008698	0.37445	0.12054	-0.62943	-0.02121	0.14358	0.42984	0.014954	-0.053558	0.040741	-0.038147	-0.19699	0.02243	0.037079	-0.010071	-0.019226	-0.004425	-0.057678	0.009155	-0.001068	-0.020599
3.841	-0.011444	0.081482	0.047913	0.007172	0.074615	0.28656	0.057373	-0.030975	-0.057373	-0.020447	-0.21103	0.007477	0.10864	0.10269	-0.34409	-0.018921	0.10635	0.36377	0.012207	0.00351	0.063629	-0.038147	-0.18219	0.025635	0.015106	-0.002441	0.18509	-0.002594	0.10086	-0.053711	0.000153	-0.01236
3.842	-0.032043	0.13214	-0.02594	0.016022	0.020599	0.2504	0.074158	-0.019989	-0.25696	-0.036469	-0.079346	0.011749	0.13123	-0.050659	-0.56168	0.010986	0.089417	0.28686	-0.053253	0.023651	0.043945	-0.062561	-0.21835	0.001373	-0.001831	-0.005798	0.26794	-0.007172	0.15243	-0.080872	0.011292	-0.011292
3.843	-0.037842	0.067749	-0.054932	0.018158	-0.1033	-0.067444	0.044556	-0.016327	-0.47028	-0.057831	0.030365	0.007935	0.077209	-0.12054	-0.48553	-0.004883	0.072479	0.14038	-0.085144	0.034943	0.03418	-0.08667	-0.1622	-0.053558	-0.014191	-0.009766	0.062103	-0.005798	0.16327	-0.041351	-0.003052	-0.009918
3.844	-0.033264	-0.025177	-0.10056	0.008392	-0.057831	-0.12543	0.066071	-0.018768	-0.48202	0.006561	0.00351	0.006866	0.067596	-0.12497	-0.15182	0	0.051727	0.06485	-0.048676	-0.043945	0.069733	-0.039063	-0.17288	-0.066071	-0.024719	-0.018616	0.13336	0.001831	0.1294	-0.071564	-0.001373	-0.014191
3.845	0.01358	0.031738	-0.13229	0.018463	-0.087128	-0.24078	-0.002899	-0.039368	-0.36911	0.029602	-0.054016	0.010071	0.15015	-0.043793	-0.065918	0.007172	0.033264	0.005646	-0.085602	-0.06546	0.037384	-0.088806	-0.18921	-0.048523	-0.024414	-0.018005	0.13321	0.005035	0.10117	-0.10696	-0.002747	-0.018616
3.846	0.054016	0.049286	-0.097198	0.02243	-0.041351	-0.32776	-0.12894	-0.053558	-0.18066	0.024567	-0.074921	0.007782	0.066986	-0.00061	0.032501	0.01236	-0.000153	-0.018616	-0.099335	-0.092926	0.006866	-0.17792	-0.22324	-0.020142	-0.020142	-0.010681	-0.018311	-0.000458	0.26825	-0.077362	-0.002441	-0.021362
3.847	0.035706	0.098267	-0.039368	-0.005188	0.084229	-0.27542	-0.081482	-0.033569	-0.089111	0.036011	-0.10223	0.004425	0.065918	-0.046844	-0.072632	0.023193	-0.012207	-0.075989	-0.10086	-0.042267	-0.12146	-0.19226	-0.24689	-0.031433	-0.022583	0.003815	-0.31906	-0.003052	0.33478	-0.07019	-0.001526	-0.022278
3.848	0.046844	0.06958	0.1738	0.013733	0.11704	-0.28778	0.005798	-0.030518	-0.090942	-0.000153	-0.08728	0.00885	0.1886	-0.041199	0.087585	0.0354	-0.039673	-0.092926	-0.019073	0.011444	-0.039063	-0.21286	-0.25116	-0.067902	-0.036316	0.001221	-0.24109	-0.003204	0.15656	-0.15503	-0.005798	-0.012817
3.849	0.042267	0.020447	0.17929	0.021973	0.083771	-0.37796	0.028229	-0.018005	-0.055389	-0.038147	-0.019531	0.01358	0.10696	0.013428	0.33829	0.015411	-0.040588	-0.1712	0.036774	0.068665	0.015564	-0.085144	-0.20294	-0.068359	-0.023193	0.007324	-0.54016	-0.005951	0.10895	-0.13306	-0.00061	-0.012054
3.85	0.042114	0.058746	0.061188	-0.003052	0.045471	-0.30853	0.00351	-0.026093	-0.031281	-0.026245	0.047302	0.012054	-0.010986	0.049133	0.046387	0.016937	-0.089874	-0.14618	0.020142	0.032349	0.062714	0.024567	-0.22369	-0.046692	-0.023193	0.009155	-0.27359	-0.000305	-0.084229	-0.027313	-0.005341	-0.013123
3.851	0.025482	0.10788	0.027466	0.010071	0.043793	-0.27466	-0.061493	-0.005798	0	-0.014191	0.085144	0.015564	-0.095825	0.050354	0.048676	0.02182	-0.10742	-0.15656	-0.041504	0.063019	0.007172	0.10819	-0.25269	-0.022278	-0.015411	0.018921	0.075836	-0.004425	-0.2713	0.047302	0.001221	-0.011902
3.852	0.014191	0.089874	0.13596	0.005341	-0.00885	-0.2713	-0.11169	0.008698	0.11444	0.005035	0.11841	0.011597	-0.12421	0.041809	-0.06012	0.025482	-0.080109	-0.27115	-0.009918	-0.027008	-0.14587	0.059357	-0.23956	-0.06073	-0.022888	0.007019	-0.24384	-0.011444	-0.32562	0.21454	-0.000153	-0.009766
